# Blender v2.79 (sub 0) OBJ File: ''
# www.blender.org
mtllib HighRise3.mtl
o Highrise_8
v 1793.583740 0.756363 -0.235886
v 1793.583740 100.756363 -0.235870
v 2010.583740 100.756363 -0.235870
v 2010.583740 0.756363 -0.235886
v 1802.083740 100.756363 8.264130
v 1802.083740 200.756363 8.264146
v 2002.083740 200.756363 8.264146
v 2002.083740 100.756363 8.264130
v 2010.583740 100.756325 216.764130
v 2010.583740 0.756328 216.764114
v 2002.083740 200.756332 208.264145
v 2002.083740 100.756332 208.264130
v 1793.583740 100.756325 216.764130
v 1793.583740 0.756328 216.764114
v 1802.083740 200.756332 208.264145
v 1802.083740 100.756332 208.264130
v 1840.771851 251.378647 82.064156
v 1840.771851 251.378647 134.464157
v 1893.171875 251.378647 134.464157
v 1893.171875 251.378647 82.064156
v 1802.083740 0.756329 208.264114
v 1802.083740 0.756362 8.264113
v 2002.083740 0.756362 8.264113
v 2002.083740 0.756329 208.264114
v 1825.283691 221.578659 31.464149
v 1978.883667 221.578659 31.464149
v 1978.883667 221.578629 185.064148
v 1825.283691 221.578629 185.064148
v 1830.883667 221.578659 37.064148
v 1973.283691 221.578659 37.064148
v 1973.283691 221.578629 179.464142
v 1830.883667 221.578629 179.464142
v 1830.883667 215.778656 37.064148
v 1973.283691 215.778656 37.064148
v 1973.283691 215.778625 179.464142
v 1830.883667 215.778625 179.464142
v 1840.771851 215.778641 82.064156
v 1893.171875 215.778641 82.064156
v 1893.171875 215.778641 134.464142
v 1840.771851 215.778641 134.464142
vt 0.000000 0.000000
vt 0.000000 0.500000
vt 1.000000 0.500000
vt 1.000000 0.000000
vt 0.000000 0.500000
vt 0.000000 1.000000
vt 1.000000 1.000000
vt 1.000000 0.500000
vt 0.000000 0.000000
vt 0.000000 0.500000
vt 1.000000 0.500000
vt 1.000000 0.000000
vt 0.000000 0.500000
vt 0.000000 1.000000
vt 1.000000 1.000000
vt 1.000000 0.500000
vt 0.000000 0.000000
vt 0.000000 0.500000
vt 1.000000 0.500000
vt 1.000000 0.000000
vt 0.000000 0.500000
vt 0.000000 1.000000
vt 1.000000 1.000000
vt 1.000000 0.500000
vt 0.000000 0.000000
vt 0.000000 0.500000
vt 1.000000 0.500000
vt 1.000000 0.000000
vt 0.000000 0.500000
vt 0.000000 1.000000
vt 1.000000 1.000000
vt 1.000000 0.500000
vt 0.329427 0.329427
vt 0.329427 0.670573
vt 0.670573 0.670573
vt 0.670573 0.329427
vt 0.000000 0.000000
vt 0.000000 1.000000
vt 1.000000 1.000000
vt 1.000000 0.000000
vt 0.000000 0.000000
vt 1.000000 0.000000
vt 0.000000 0.000000
vt 0.000000 0.000000
vt 1.000000 0.000000
vt 1.000000 0.000000
vt 0.000000 0.000000
vt 0.000000 0.000000
vt 1.000000 0.000000
vt 1.000000 0.000000
vt 1.000000 1.000000
vt 0.000000 1.000000
vt 0.036458 0.036458
vt 0.963542 0.036458
vt 0.963542 0.963542
vt 0.036458 0.963542
vt 0.036458 0.036458
vt 0.963542 0.036458
vt 0.963542 0.963542
vt 0.036458 0.963542
vt 0.329427 0.329427
vt 0.670573 0.329427
vt 0.670573 0.670573
vt 0.329427 0.670573
vn 0.0000 0.0000 -1.0000
vn 1.0000 -0.0000 0.0000
vn 0.0000 -0.0000 1.0000
vn -1.0000 -0.0000 0.0000
vn 0.0000 1.0000 0.0000
vn 0.0000 -1.0000 -0.0000
vn 0.0000 0.7442 -0.6679
vn 0.6679 0.7442 0.0000
vn 0.0000 0.7442 0.6679
vn -0.6679 0.7442 0.0000
usemtl default
s off
f 1/1/1 2/2/1 3/3/1 4/4/1
f 5/5/1 6/6/1 7/7/1 8/8/1
f 4/9/2 3/10/2 9/11/2 10/12/2
f 8/13/2 7/14/2 11/15/2 12/16/2
f 10/17/3 9/18/3 13/19/3 14/20/3
f 12/21/3 11/22/3 15/23/3 16/24/3
f 14/25/4 13/26/4 2/27/4 1/28/4
f 16/29/4 15/30/4 6/31/4 5/32/4
f 17/33/5 18/34/5 19/35/5 20/36/5
f 21/37/6 22/38/6 23/39/6 24/40/6
f 22/41/6 1/1/6 4/4/6 23/42/6
f 8/8/5 3/3/5 2/2/5 5/5/5
f 23/43/6 4/9/6 10/12/6 24/40/6
f 12/16/5 9/11/5 3/10/5 8/13/5
f 24/44/6 10/17/6 14/20/6 21/45/6
f 16/24/5 13/19/5 9/18/5 12/21/5
f 21/37/6 14/25/6 1/28/6 22/46/6
f 5/32/5 2/27/5 13/26/5 16/29/5
f 6/47/7 25/48/7 26/49/7 7/50/7
f 7/50/8 26/49/8 27/51/8 11/15/8
f 11/15/9 27/51/9 28/52/9 15/30/9
f 15/30/10 28/52/10 25/48/10 6/47/10
f 25/48/5 29/53/5 30/54/5 26/49/5
f 26/49/5 30/54/5 31/55/5 27/51/5
f 27/51/5 31/55/5 32/56/5 28/52/5
f 28/52/5 32/56/5 29/53/5 25/48/5
f 29/53/3 33/57/3 34/58/3 30/54/3
f 30/54/4 34/58/4 35/59/4 31/55/4
f 31/55/1 35/59/1 36/60/1 32/56/1
f 32/56/2 36/60/2 33/57/2 29/53/2
f 33/57/5 37/61/5 38/62/5 34/58/5
f 34/58/5 38/62/5 39/63/5 35/59/5
f 35/59/5 39/63/5 40/64/5 36/60/5
f 36/60/5 40/64/5 37/61/5 33/57/5
f 37/61/1 17/33/1 20/36/1 38/62/1
f 38/62/2 20/36/2 19/35/2 39/63/2
f 39/63/3 19/35/3 18/34/3 40/64/3
f 40/64/4 18/34/4 17/33/4 37/61/4
